<?xml version="1.0" encoding="utf-8"?><svg xmlns="http://www.w3.org/2000/svg" xmlns:xlink="http://www.w3.org/1999/xlink"><symbol viewBox="0 0 14 10" id="arrow-r" xmlns="http://www.w3.org/2000/svg"><path d="M13 5H.5M13 5L9 1l4 4zm0 0L9 9l4-4z"/></symbol><symbol viewBox="0 0 5 8" id="chevron-left" xmlns="http://www.w3.org/2000/svg"><path d="M4 1L1 4l3 3"/></symbol><symbol viewBox="0 0 6 8" id="chevron-right" xmlns="http://www.w3.org/2000/svg"><path d="M1.5 7l3-3-3-3"/></symbol><symbol viewBox="0 0 14 16" id="location" xmlns="http://www.w3.org/2000/svg"><path fill-rule="evenodd" clip-rule="evenodd" d="M7 0c3.866 0 7 3.1 7 6.924 0 2.53-2.117 5.206-6.262 8.12L7 15.557l-.445-.308C2.217 12.255 0 9.513 0 6.924 0 3.1 3.134 0 7 0zm0 1.539c-3.007 0-5.444 2.41-5.444 5.385 0 1.869 1.786 4.149 5.444 6.75 3.658-2.601 5.444-4.881 5.444-6.75 0-2.974-2.437-5.385-5.444-5.385zM7 3.11a3.111 3.111 0 110 6.222A3.111 3.111 0 017 3.11zm0 1.556a1.556 1.556 0 100 3.11 1.556 1.556 0 000-3.11z"/></symbol></svg>