<?xml version="1.0" encoding="utf-8"?><svg xmlns="http://www.w3.org/2000/svg" xmlns:xlink="http://www.w3.org/1999/xlink"><symbol viewBox="0 0 24 24" id="alert" xmlns="http://www.w3.org/2000/svg"><g data-name="Layer 2"><path d="M12 2a10 10 0 1010 10A10 10 0 0012 2zm0 15a1 1 0 111-1 1 1 0 01-1 1zm1-4a1 1 0 01-2 0V8a1 1 0 012 0z" data-name="alert-circle"/></g></symbol><symbol viewBox="0 0 48 48" id="arrow-clockwise" xmlns="http://www.w3.org/2000/svg"><path d="M8.532 15.88a17.846 17.846 0 017.83-7.957A17.412 17.412 0 0127.304 6.26a17.59 17.59 0 019.774 5.28 18.134 18.134 0 014.776 10.158 18.272 18.272 0 01-2.088 11.06 17.808 17.808 0 01-8.138 7.63 17.4 17.4 0 01-11 1.216c-3.7-.802-6.732-2.626-9.24-5.51-.302-.32-1.47-1.612-2.44-3.562"/><path d="M17.861 32.373L7.781 30.56 6 40.82"/></symbol><symbol viewBox="0 0 36 36" id="arrow-down" xmlns="http://www.w3.org/2000/svg"><path d="M36 18a18 18 0 11-36 0 18 18 0 0136 0zm-16.875-7.875a1.125 1.125 0 10-2.25 0v13.034l-4.829-4.83a1.127 1.127 0 00-1.592 1.593l6.75 6.75a1.124 1.124 0 001.593 0l6.75-6.75a1.127 1.127 0 00-1.594-1.594l-4.828 4.831V10.125z"/></symbol><symbol viewBox="0 0 14 10" id="arrow-r" xmlns="http://www.w3.org/2000/svg"><path d="M13 5H.5M13 5L9 1l4 4zm0 0L9 9l4-4z"/></symbol><symbol viewBox="0 0 24 24" id="btnLike" xmlns="http://www.w3.org/2000/svg"><path d="M12.5 20.34l-.271.266a.38.38 0 00.543 0l-.272-.266zm-7.77-7.933l-.272.266.271-.266zm15.54 0l.272.266-.271-.266zm-9.027-6.65l-.271.266.271-.266zM12.5 7.04l-.271.266a.38.38 0 00.543 0L12.5 7.04zm1.257-1.283l-.272-.266.272.266zm-.986 14.317l-7.77-7.933-.543.532 7.77 7.933.543-.532zM20 12.141l-7.77 7.933.543.532 7.77-7.933-.543-.532zm-9.027-6.118l1.257 1.283.543-.532-1.257-1.283-.543.532zm1.8 1.283l1.256-1.283-.543-.532-1.256 1.283.543.532zM17.014 4a4.94 4.94 0 00-3.529 1.491l.543.532a4.179 4.179 0 012.986-1.263V4zm4.226 5.082c0 1.149-.447 2.25-1.24 3.06l.542.531A5.133 5.133 0 0022 9.083h-.76zm.76 0C22 6.282 19.775 4 17.014 4v.76c2.326 0 4.226 1.928 4.226 4.322H22zM7.986 4.76a4.18 4.18 0 012.986 1.263l.543-.532A4.94 4.94 0 007.986 4v.76zM3.76 9.082c0-2.394 1.9-4.322 4.226-4.322V4C5.226 4 3 6.283 3 9.082h.76zM5 12.142a4.372 4.372 0 01-1.24-3.06H3a5.13 5.13 0 001.458 3.591L5 12.141z"/></symbol><symbol viewBox="0 0 48 48" id="call" xmlns="http://www.w3.org/2000/svg"><path d="M33.633 20.73h-2.346a3.523 3.523 0 00-3.52-3.518v-2.347a5.873 5.873 0 015.866 5.866z"/><path d="M38.325 20.73H35.98a8.221 8.221 0 00-8.211-8.21v-2.347a10.569 10.569 0 0110.557 10.558zm-8.993 9.95l2.627-2.627a2.542 2.542 0 012.742-.563l3.2 1.28a2.542 2.542 0 011.598 2.361v5.82a2.543 2.543 0 01-2.68 2.544C14.388 38.099 9.858 19.1 9.016 11.825A2.537 2.537 0 0111.543 9h5.717a2.542 2.542 0 012.36 1.598l1.28 3.2a2.542 2.542 0 01-.563 2.741l-2.628 2.628s1.457 10.243 11.623 11.514z"/></symbol><symbol viewBox="0 0 17 17" id="check" xmlns="http://www.w3.org/2000/svg"><path d="M3 10.174L8 14l6-11"/></symbol><symbol viewBox="0 0 15 9" id="chevron-bot" xmlns="http://www.w3.org/2000/svg"><path d="M14 1L7.5 8 1 1"/></symbol><symbol viewBox="0 0 13 8" id="chevron-down" xmlns="http://www.w3.org/2000/svg"><path fill-rule="evenodd" clip-rule="evenodd" d="M6.071 7.286L0 1.214 1.214 0l4.857 4.857L10.928 0l1.214 1.214-4.857 4.857-1.214 1.215z"/></symbol><symbol viewBox="0 0 5 8" id="chevron-left" xmlns="http://www.w3.org/2000/svg"><path d="M4 1L1 4l3 3"/></symbol><symbol viewBox="0 0 6 8" id="chevron-right" xmlns="http://www.w3.org/2000/svg"><path d="M1.5 7l3-3-3-3"/></symbol><symbol viewBox="0 0 36 36" id="chevron-right-lg" xmlns="http://www.w3.org/2000/svg"><path d="M13.666 28l10-10-10-10"/></symbol><symbol viewBox="0 0 15 9" id="chevron-top" xmlns="http://www.w3.org/2000/svg"><path d="M1 8l6.5-7L14 8"/></symbol><symbol viewBox="0 0 48 48" id="clock" xmlns="http://www.w3.org/2000/svg"><path d="M24 10c-7.731 0-14 6.269-14 14s6.269 14 14 14 14-6.269 14-14-6.269-14-14-14zm5.516 18.303l-.894 1.219a.252.252 0 01-.262.095.25.25 0 01-.088-.042l-5.169-3.769a.248.248 0 01-.103-.203V17a.25.25 0 01.25-.25h1.503a.25.25 0 01.25.25v7.734l4.456 3.222a.246.246 0 01.057.347z"/></symbol><symbol viewBox="0 0 36 36" id="community" xmlns="http://www.w3.org/2000/svg"><path d="M16.125 29.25s-1.875 0-1.875-1.875 1.875-7.5 9.375-7.5S33 25.5 33 27.375s-1.875 1.875-1.875 1.875h-15zm7.5-11.25a5.625 5.625 0 100-11.25 5.625 5.625 0 000 11.25z"/><path fill-rule="evenodd" clip-rule="evenodd" d="M12.78 29.25a4.195 4.195 0 01-.405-1.875c0-2.54 1.275-5.156 3.63-6.975a11.86 11.86 0 00-3.63-.525c-7.5 0-9.375 5.625-9.375 7.5s1.875 1.875 1.875 1.875h7.905z"/><path d="M11.438 18a4.688 4.688 0 100-9.376 4.688 4.688 0 000 9.376z"/></symbol><symbol viewBox="0 0 30 8" id="contact-info-arrow" xmlns="http://www.w3.org/2000/svg"><path d="M26.291 7l3-3-3-3M29.291 4.092H.447"/></symbol><symbol viewBox="0 0 8 8" id="cross" xmlns="http://www.w3.org/2000/svg"><path d="M4 4.733l3.115 3.115a.518.518 0 10.733-.733L4.733 4 7.848.885a.518.518 0 10-.733-.733L4 3.267.885.152a.518.518 0 10-.733.733L3.267 4 .152 7.115a.517.517 0 000 .733c.202.203.53.203.733 0L4 4.733z"/></symbol><symbol viewBox="0 0 16 16" id="dots" xmlns="http://www.w3.org/2000/svg"><circle cx="5" cy="8" r="1"/><circle cx="8" cy="8" r="1"/><circle cx="11" cy="8" r="1"/></symbol><symbol viewBox="0 0 56 56" id="down-scroll" xmlns="http://www.w3.org/2000/svg"><path d="M54 15L28 41 2 15"/></symbol><symbol viewBox="0 0 25 24" id="download" xmlns="http://www.w3.org/2000/svg"><g clip-path="url(#ata)"><path d="M19.85 10.04A7.49 7.49 0 0012.5 4C9.61 4 7.1 5.64 5.85 8.04A5.994 5.994 0 00.5 14c0 3.31 2.69 6 6 6h13c2.76 0 5-2.24 5-5 0-2.64-2.05-4.78-4.65-4.96zM17.5 13l-5 5-5-5h3V9h4v4h3z"/></g><defs><clipPath id="ata"><path transform="translate(.5)" d="M0 0h24v24H0z"/></clipPath></defs></symbol><symbol viewBox="0 0 32 32" id="drop-arrow" xmlns="http://www.w3.org/2000/svg"><path d="M12 13.333l4 4 4-4"/></symbol><symbol viewBox="0 0 24 24" id="fb" xmlns="http://www.w3.org/2000/svg"><path d="M13.397 20.997v-8.196h2.765l.411-3.209h-3.176V7.548c0-.926.258-1.56 1.587-1.56h1.684v-2.86A22.108 22.108 0 0014.201 3c-2.444 0-4.122 1.492-4.122 4.231v2.355H7.332v3.21h2.753v8.201h3.312z"/></symbol><symbol viewBox="0 0 36 36" id="growth" xmlns="http://www.w3.org/2000/svg"><path d="M4 23.643a1.964 1.964 0 011.964-1.964h3.929a1.964 1.964 0 011.964 1.964v5.893A1.964 1.964 0 019.893 31.5H5.964A1.965 1.965 0 014 29.536v-5.893zm9.821-7.857a1.964 1.964 0 011.965-1.965h3.928a1.964 1.964 0 011.965 1.965v13.75a1.964 1.964 0 01-1.965 1.964h-3.928a1.964 1.964 0 01-1.965-1.964v-13.75zm9.822-9.822A1.964 1.964 0 0125.607 4h3.929A1.964 1.964 0 0131.5 5.964v23.572a1.965 1.965 0 01-1.964 1.964h-3.929a1.965 1.965 0 01-1.964-1.964V5.964z"/></symbol><symbol viewBox="0 0 36 36" id="icon-news" xmlns="http://www.w3.org/2000/svg"><path d="M29.813 4.5H6.188C4.43 4.5 3 5.846 3 7.5v21c0 1.654 1.43 3 3.188 3h23.625c1.758 0 3.187-1.346 3.187-3v-21c0-1.654-1.43-3-3.188-3zm0 24H6.188c-.086 0-.144-.024-.17-.024-.01 0-.016.003-.018.012L5.982 7.569c.01-.015.078-.069.205-.069h23.625c.119.002.183.042.188.012l.018 20.919c-.01.015-.078.069-.206.069z"/><path d="M9 10.5h9v9H9v-9zm10.5 12H9v3h18v-3h-7.5zm1.5-6h6v3h-6v-3zm0-6h6v3h-6v-3z"/></symbol><symbol viewBox="0 0 36 36" id="icon-question" xmlns="http://www.w3.org/2000/svg"><path d="M18 1C8.612 1 1 8.612 1 18s7.612 17 17 17 17-7.612 17-17S27.388 1 18 1zm0 31.116c-7.794 0-14.116-6.322-14.116-14.116S10.206 3.884 18 3.884 32.116 10.206 32.116 18 25.794 32.116 18 32.116z"/><path d="M22.234 10.59c-1.138-.999-2.641-1.545-4.235-1.545-1.594 0-3.096.55-4.235 1.544-1.184 1.036-1.836 2.429-1.836 3.92v.288c0 .167.136.304.303.304h1.822a.304.304 0 00.303-.304v-.288c0-1.674 1.636-3.036 3.643-3.036 2.008 0 3.643 1.362 3.643 3.036 0 1.18-.835 2.261-2.129 2.759a4.242 4.242 0 00-1.977 1.552 4.344 4.344 0 00-.755 2.462v.816c0 .167.137.304.304.304h1.821a.305.305 0 00.304-.304v-.861a1.832 1.832 0 011.172-1.7c2.239-.861 3.685-2.835 3.685-5.028.004-1.491-.65-2.884-1.833-3.92zm-5.753 15.758a1.518 1.518 0 103.035 0 1.518 1.518 0 00-3.035 0z"/></symbol><symbol viewBox="0 0 48 48" id="info" xmlns="http://www.w3.org/2000/svg"><path d="M6 15.55C6 13.038 8.016 11 10.5 11h27c2.484 0 4.5 2.038 4.5 4.55v16.9a4.576 4.576 0 01-1.318 3.217A4.475 4.475 0 0137.5 37h-27a4.475 4.475 0 01-3.182-1.333A4.576 4.576 0 016 32.45v-16.9zm10.957 7.706a3.456 3.456 0 002.467-1.033 3.532 3.532 0 001.022-2.495 3.564 3.564 0 00-1.022-2.495 3.456 3.456 0 00-4.935 0 3.548 3.548 0 00-1.022 2.495 3.55 3.55 0 001.022 2.495 3.47 3.47 0 002.468 1.033zm-3.608 1.763c-.585 0-1.146.235-1.56.654a2.243 2.243 0 00-.646 1.577c0 .968.32 1.909.91 2.672a4.29 4.29 0 002.343 1.54l.136.036a9.878 9.878 0 004.85 0l.139-.033a4.29 4.29 0 002.343-1.54c.59-.764.91-1.704.91-2.672a2.252 2.252 0 00-.646-1.58 2.203 2.203 0 00-1.56-.654h-7.219zM27.857 18.8c-.34 0-.668.137-.909.38a1.307 1.307 0 000 1.84c.241.243.568.38.91.38h7.713c.341 0 .668-.137.91-.38a1.307 1.307 0 000-1.84 1.279 1.279 0 00-.91-.38h-7.714zm0 7.8c-.34 0-.668.137-.909.38a1.307 1.307 0 000 1.84c.241.243.568.38.91.38h7.713c.341 0 .668-.137.91-.38a1.307 1.307 0 000-1.84 1.279 1.279 0 00-.91-.38h-7.714z"/></symbol><symbol viewBox="0 0 24 24" id="inst" xmlns="http://www.w3.org/2000/svg"><path d="M11.999 7.377a4.624 4.624 0 100 9.248 4.624 4.624 0 000-9.248zm0 7.627a3.004 3.004 0 110-6.008 3.004 3.004 0 010 6.008zm4.807-6.719a1.078 1.078 0 100-2.156 1.078 1.078 0 000 2.156z"/><path d="M20.533 6.11A4.605 4.605 0 0017.9 3.48a6.607 6.607 0 00-2.186-.42c-.963-.042-1.268-.054-3.71-.054s-2.755 0-3.71.054a6.554 6.554 0 00-2.184.42 4.6 4.6 0 00-2.633 2.63 6.585 6.585 0 00-.419 2.186c-.043.962-.056 1.267-.056 3.71 0 2.442 0 2.753.056 3.71.015.748.156 1.486.419 2.187a4.61 4.61 0 002.634 2.632 6.583 6.583 0 002.185.45c.963.042 1.268.055 3.71.055s2.755 0 3.71-.055a6.616 6.616 0 002.186-.42 4.613 4.613 0 002.633-2.632c.263-.7.404-1.438.419-2.186.043-.962.056-1.267.056-3.71s0-2.753-.056-3.71a6.583 6.583 0 00-.421-2.217zm-1.218 9.533a5.046 5.046 0 01-.311 1.688 2.987 2.987 0 01-1.712 1.71c-.535.2-1.1.305-1.67.312-.95.044-1.218.055-3.654.055-2.438 0-2.687 0-3.655-.055a4.961 4.961 0 01-1.67-.311 2.984 2.984 0 01-1.718-1.711 5.08 5.08 0 01-.311-1.67c-.043-.95-.053-1.217-.053-3.653 0-2.437 0-2.686.053-3.655a5.038 5.038 0 01.311-1.687c.305-.79.93-1.41 1.719-1.712a5.01 5.01 0 011.669-.311c.95-.043 1.218-.055 3.655-.055s2.687 0 3.654.055a4.96 4.96 0 011.67.31 2.99 2.99 0 011.712 1.713 5.06 5.06 0 01.311 1.669c.043.95.054 1.218.054 3.655 0 2.436 0 2.698-.043 3.654h-.011v-.001z"/></symbol><symbol viewBox="0 0 14 16" id="location" xmlns="http://www.w3.org/2000/svg"><path fill-rule="evenodd" clip-rule="evenodd" d="M7 0c3.866 0 7 3.1 7 6.924 0 2.53-2.117 5.206-6.262 8.12L7 15.557l-.445-.308C2.217 12.255 0 9.513 0 6.924 0 3.1 3.134 0 7 0zm0 1.539c-3.007 0-5.444 2.41-5.444 5.385 0 1.869 1.786 4.149 5.444 6.75 3.658-2.601 5.444-4.881 5.444-6.75 0-2.974-2.437-5.385-5.444-5.385zM7 3.11a3.111 3.111 0 110 6.222A3.111 3.111 0 017 3.11zm0 1.556a1.556 1.556 0 100 3.11 1.556 1.556 0 000-3.11z"/></symbol><symbol viewBox="0 0 48 48" id="marker" xmlns="http://www.w3.org/2000/svg"><path d="M24 5c-7.732 0-14 6.413-14 14.324 0 2.646.506 5.378 1.959 7.348L24 43l12.041-16.328C37.361 24.883 38 21.72 38 19.324 38 11.414 31.732 5 24 5zm0 8.296c3.253 0 5.892 2.7 5.892 6.028 0 3.329-2.639 6.028-5.892 6.028-3.253 0-5.892-2.7-5.892-6.028 0-3.328 2.639-6.028 5.892-6.028z"/></symbol><symbol viewBox="0 0 48 48" id="parking" xmlns="http://www.w3.org/2000/svg"><path d="M40.5 3h-33A4.501 4.501 0 003 7.5v33C3 42.984 5.016 45 7.5 45h33c2.484 0 4.5-2.016 4.5-4.5v-33C45 5.016 42.984 3 40.5 3zm-15 27H21v4.5c0 .825-.675 1.5-1.5 1.5h-3c-.825 0-1.5-.675-1.5-1.5v-21c0-.825.675-1.5 1.5-1.5h9c4.96 0 9 4.04 9 9s-4.04 9-9 9zm0-12H21v6h4.5c1.65 0 3-1.35 3-3s-1.35-3-3-3z"/></symbol><symbol viewBox="0 0 24 24" id="phone" xmlns="http://www.w3.org/2000/svg"><path d="M15.692 10.616h-.923a1.386 1.386 0 00-1.385-1.385v-.923a2.31 2.31 0 012.308 2.308z"/><path d="M17.538 10.616h-.923a3.235 3.235 0 00-3.23-3.231v-.923a4.159 4.159 0 014.153 4.154zM14 14.53l1.034-1.033a1 1 0 011.078-.222l1.26.504a1 1 0 01.628.929v2.29a1 1 0 01-1.054 1C8.12 17.45 6.337 9.975 6.006 7.111A.998.998 0 017.001 6H9.25a1 1 0 01.928.629l.504 1.259a1 1 0 01-.222 1.078L9.428 10S10 14.03 14 14.53z"/></symbol><symbol viewBox="0 0 16 16" id="plus" xmlns="http://www.w3.org/2000/svg"><path d="M0 8h16M8 0v16V0z"/></symbol><symbol viewBox="0 0 36 36" id="privilege" xmlns="http://www.w3.org/2000/svg"><path fill-rule="evenodd" clip-rule="evenodd" d="M18 3C9.716 3 3 9.716 3 18c0 8.284 6.716 15 15 15 8.284 0 15-6.716 15-15 0-8.284-6.716-15-15-15zm1.364 20.454a1.363 1.363 0 11-2.728 0v-4.09h-4.09a1.363 1.363 0 110-2.728h4.09v-4.09a1.363 1.363 0 112.728 0v4.09h4.09a1.363 1.363 0 110 2.728h-4.09v4.09z"/></symbol><symbol viewBox="0 0 48 48" id="recycle" xmlns="http://www.w3.org/2000/svg"><path d="M20 22h-5.798l.002-.018a9.912 9.912 0 011.504-3.574 10.108 10.108 0 014.4-3.622 9.797 9.797 0 011.876-.582c1.332-.27 2.704-.27 4.036 0a9.956 9.956 0 015.05 2.722l2.832-2.824a14.073 14.073 0 00-4.448-3.002 13.845 13.845 0 00-2.63-.816 14.158 14.158 0 00-5.638 0c-.902.185-1.784.459-2.632.818a14.08 14.08 0 00-6.16 5.068 13.956 13.956 0 00-2.108 5.01c-.056.27-.086.546-.126.82H4l8 8 8-8zm8 4h5.798l-.002.016a9.952 9.952 0 01-4.206 6.276 9.887 9.887 0 01-3.574 1.504c-1.331.27-2.703.27-4.034 0a9.912 9.912 0 01-3.574-1.504 10.141 10.141 0 01-1.48-1.22L14.1 33.9a14.063 14.063 0 004.45 3c.848.36 1.734.634 2.63.816a14.14 14.14 0 005.636 0 14.062 14.062 0 008.79-5.89 13.949 13.949 0 002.106-5.006c.054-.27.086-.546.126-.82H44l-8-8-8 8z"/></symbol><symbol viewBox="0 0 24 24" id="service" xmlns="http://www.w3.org/2000/svg"><path d="M13.388 8.717a.631.631 0 000 .884l1.01 1.01a.632.632 0 00.885 0l2.38-2.38a3.789 3.789 0 01-5.013 5.014l-4.363 4.363a1.34 1.34 0 11-1.895-1.895l4.363-4.363a3.789 3.789 0 015.014-5.013L13.395 8.71l-.007.006z"/></symbol><symbol viewBox="0 0 19 18" id="sort-1" xmlns="http://www.w3.org/2000/svg"><path d="M.5 0h3v3.13h-3zM8 0h3v3.13H8zm7.5 0h3v3.13h-3zM.5 7.435h3v3.13h-3zm7.5 0h3v3.13H8zm7.5 0h3v3.13h-3zM.5 14.87h3V18h-3zm7.5 0h3V18H8zm7.5 0h3V18h-3z"/></symbol><symbol viewBox="0 0 18 18" id="sort-2" xmlns="http://www.w3.org/2000/svg"><path d="M8 0h10v3.13H8zm0 7.435h10v3.13H8zm0 7.435h10V18H8zm-7.5 0h3V18h-3zm0-7.435h3v3.13h-3zM.5 0h3v3.13h-3z"/></symbol><symbol viewBox="0 0 16 16" id="sort-order" xmlns="http://www.w3.org/2000/svg"><path d="M4 1l.354-.354a.5.5 0 00-.708 0L4 1zM3.646.646l-3 3 .708.708 3-3-.708-.708zm0 .708l3 3 .708-.708-3-3-.708.708zM3.5 1v14.5h1V1h-1zm6 3.5h6v-1h-6v1zm0 4h4v-1h-4v1zm0 4h2v-1h-2v1z"/></symbol><symbol viewBox="0 0 48 48" id="tool" xmlns="http://www.w3.org/2000/svg"><path d="M27.468 15.792a1.578 1.578 0 000 2.21l2.525 2.525a1.578 1.578 0 002.21 0l5.95-5.95A9.469 9.469 0 0125.622 27.11L14.716 38.015A3.348 3.348 0 119.98 33.28l10.906-10.906A9.47 9.47 0 0133.418 9.842l-5.934 5.935-.016.015z"/></symbol><symbol viewBox="0 0 48 48" id="tool-2" xmlns="http://www.w3.org/2000/svg"><path d="M27.468 15.792a1.578 1.578 0 000 2.21l2.525 2.525a1.578 1.578 0 002.21 0l5.95-5.95A9.469 9.469 0 0125.622 27.11L14.716 38.015A3.348 3.348 0 119.98 33.28l10.906-10.906A9.47 9.47 0 0133.418 9.842l-5.934 5.935-.016.015z"/><path fill-rule="evenodd" clip-rule="evenodd" d="M29 42.833a5.833 5.833 0 100-11.666 5.833 5.833 0 000 11.666zm2.104-7.936a.5.5 0 010 .707L29.707 37l1.397 1.397a.5.5 0 01-.708.707L29 37.707l-1.396 1.397a.5.5 0 01-.708-.707L28.293 37l-1.397-1.396a.5.5 0 01.708-.707L29 36.293l1.396-1.396a.5.5 0 01.708 0z"/></symbol><symbol viewBox="0 0 25 25" id="zoom" xmlns="http://www.w3.org/2000/svg"><path d="M24 24l-6.571-6.571L24 24zm-13.143-3.286C5.413 20.714 1 16.301 1 10.857 1 5.413 5.413 1 10.857 1c5.444 0 9.857 4.413 9.857 9.857 0 5.444-4.413 9.857-9.857 9.857z"/></symbol></svg>