<?xml version="1.0" encoding="utf-8"?><svg xmlns="http://www.w3.org/2000/svg" xmlns:xlink="http://www.w3.org/1999/xlink"><symbol viewBox="0 0 14 10" id="arrow-r" xmlns="http://www.w3.org/2000/svg"><path d="M13 5H.5M13 5L9 1l4 4zm0 0L9 9l4-4z"/></symbol><symbol viewBox="0 0 48 48" id="call" xmlns="http://www.w3.org/2000/svg"><path d="M33.633 20.73h-2.346a3.523 3.523 0 00-3.52-3.518v-2.347a5.873 5.873 0 015.866 5.866z"/><path d="M38.325 20.73H35.98a8.221 8.221 0 00-8.211-8.21v-2.347a10.569 10.569 0 0110.557 10.558zm-8.993 9.95l2.627-2.627a2.542 2.542 0 012.742-.563l3.2 1.28a2.542 2.542 0 011.598 2.361v5.82a2.543 2.543 0 01-2.68 2.544C14.388 38.099 9.858 19.1 9.016 11.825A2.537 2.537 0 0111.543 9h5.717a2.542 2.542 0 012.36 1.598l1.28 3.2a2.542 2.542 0 01-.563 2.741l-2.628 2.628s1.457 10.243 11.623 11.514z"/></symbol><symbol viewBox="0 0 17 17" id="check" xmlns="http://www.w3.org/2000/svg"><path d="M3 10.174L8 14l6-11"/></symbol><symbol viewBox="0 0 15 9" id="chevron-bot" xmlns="http://www.w3.org/2000/svg"><path d="M14 1L7.5 8 1 1"/></symbol><symbol viewBox="0 0 13 8" id="chevron-down" xmlns="http://www.w3.org/2000/svg"><path fill-rule="evenodd" clip-rule="evenodd" d="M6.071 7.286L0 1.214 1.214 0l4.857 4.857L10.928 0l1.214 1.214-4.857 4.857-1.214 1.215z"/></symbol><symbol viewBox="0 0 5 8" id="chevron-left" xmlns="http://www.w3.org/2000/svg"><path d="M4 1L1 4l3 3"/></symbol><symbol viewBox="0 0 6 8" id="chevron-right" xmlns="http://www.w3.org/2000/svg"><path d="M1.5 7l3-3-3-3"/></symbol><symbol viewBox="0 0 15 9" id="chevron-top" xmlns="http://www.w3.org/2000/svg"><path d="M1 8l6.5-7L14 8"/></symbol><symbol viewBox="0 0 48 48" id="clock" xmlns="http://www.w3.org/2000/svg"><path d="M24 10c-7.731 0-14 6.269-14 14s6.269 14 14 14 14-6.269 14-14-6.269-14-14-14zm5.516 18.303l-.894 1.219a.252.252 0 01-.262.095.25.25 0 01-.088-.042l-5.169-3.769a.248.248 0 01-.103-.203V17a.25.25 0 01.25-.25h1.503a.25.25 0 01.25.25v7.734l4.456 3.222a.246.246 0 01.057.347z"/></symbol><symbol viewBox="0 0 8 8" id="cross" xmlns="http://www.w3.org/2000/svg"><path d="M4 4.733l3.115 3.115a.518.518 0 10.733-.733L4.733 4 7.848.885a.518.518 0 10-.733-.733L4 3.267.885.152a.518.518 0 10-.733.733L3.267 4 .152 7.115a.517.517 0 000 .733c.202.203.53.203.733 0L4 4.733z"/></symbol><symbol viewBox="0 0 24 24" id="fb" xmlns="http://www.w3.org/2000/svg"><path d="M13.397 20.997v-8.196h2.765l.411-3.209h-3.176V7.548c0-.926.258-1.56 1.587-1.56h1.684v-2.86A22.108 22.108 0 0014.201 3c-2.444 0-4.122 1.492-4.122 4.231v2.355H7.332v3.21h2.753v8.201h3.312z"/></symbol><symbol viewBox="0 0 24 24" id="inst" xmlns="http://www.w3.org/2000/svg"><path d="M11.999 7.377a4.624 4.624 0 100 9.248 4.624 4.624 0 000-9.248zm0 7.627a3.004 3.004 0 110-6.008 3.004 3.004 0 010 6.008zm4.807-6.719a1.078 1.078 0 100-2.156 1.078 1.078 0 000 2.156z"/><path d="M20.533 6.11A4.605 4.605 0 0017.9 3.48a6.607 6.607 0 00-2.186-.42c-.963-.042-1.268-.054-3.71-.054s-2.755 0-3.71.054a6.554 6.554 0 00-2.184.42 4.6 4.6 0 00-2.633 2.63 6.585 6.585 0 00-.419 2.186c-.043.962-.056 1.267-.056 3.71 0 2.442 0 2.753.056 3.71.015.748.156 1.486.419 2.187a4.61 4.61 0 002.634 2.632 6.583 6.583 0 002.185.45c.963.042 1.268.055 3.71.055s2.755 0 3.71-.055a6.616 6.616 0 002.186-.42 4.613 4.613 0 002.633-2.632c.263-.7.404-1.438.419-2.186.043-.962.056-1.267.056-3.71s0-2.753-.056-3.71a6.583 6.583 0 00-.421-2.217zm-1.218 9.533a5.046 5.046 0 01-.311 1.688 2.987 2.987 0 01-1.712 1.71c-.535.2-1.1.305-1.67.312-.95.044-1.218.055-3.654.055-2.438 0-2.687 0-3.655-.055a4.961 4.961 0 01-1.67-.311 2.984 2.984 0 01-1.718-1.711 5.08 5.08 0 01-.311-1.67c-.043-.95-.053-1.217-.053-3.653 0-2.437 0-2.686.053-3.655a5.038 5.038 0 01.311-1.687c.305-.79.93-1.41 1.719-1.712a5.01 5.01 0 011.669-.311c.95-.043 1.218-.055 3.655-.055s2.687 0 3.654.055a4.96 4.96 0 011.67.31 2.99 2.99 0 011.712 1.713 5.06 5.06 0 01.311 1.669c.043.95.054 1.218.054 3.655 0 2.436 0 2.698-.043 3.654h-.011v-.001z"/></symbol><symbol viewBox="0 0 14 16" id="location" xmlns="http://www.w3.org/2000/svg"><path fill-rule="evenodd" clip-rule="evenodd" d="M7 0c3.866 0 7 3.1 7 6.924 0 2.53-2.117 5.206-6.262 8.12L7 15.557l-.445-.308C2.217 12.255 0 9.513 0 6.924 0 3.1 3.134 0 7 0zm0 1.539c-3.007 0-5.444 2.41-5.444 5.385 0 1.869 1.786 4.149 5.444 6.75 3.658-2.601 5.444-4.881 5.444-6.75 0-2.974-2.437-5.385-5.444-5.385zM7 3.11a3.111 3.111 0 110 6.222A3.111 3.111 0 017 3.11zm0 1.556a1.556 1.556 0 100 3.11 1.556 1.556 0 000-3.11z"/></symbol><symbol viewBox="0 0 16 16" id="plus" xmlns="http://www.w3.org/2000/svg"><path d="M0 8h16M8 0v16V0z"/></symbol><symbol viewBox="0 0 48 48" id="recycle" xmlns="http://www.w3.org/2000/svg"><path d="M20 22h-5.798l.002-.018a9.912 9.912 0 011.504-3.574 10.108 10.108 0 014.4-3.622 9.797 9.797 0 011.876-.582c1.332-.27 2.704-.27 4.036 0a9.956 9.956 0 015.05 2.722l2.832-2.824a14.073 14.073 0 00-4.448-3.002 13.845 13.845 0 00-2.63-.816 14.158 14.158 0 00-5.638 0c-.902.185-1.784.459-2.632.818a14.08 14.08 0 00-6.16 5.068 13.956 13.956 0 00-2.108 5.01c-.056.27-.086.546-.126.82H4l8 8 8-8zm8 4h5.798l-.002.016a9.952 9.952 0 01-4.206 6.276 9.887 9.887 0 01-3.574 1.504c-1.331.27-2.703.27-4.034 0a9.912 9.912 0 01-3.574-1.504 10.141 10.141 0 01-1.48-1.22L14.1 33.9a14.063 14.063 0 004.45 3c.848.36 1.734.634 2.63.816a14.14 14.14 0 005.636 0 14.062 14.062 0 008.79-5.89 13.949 13.949 0 002.106-5.006c.054-.27.086-.546.126-.82H44l-8-8-8 8z"/></symbol><symbol viewBox="0 0 19 18" id="sort-1" xmlns="http://www.w3.org/2000/svg"><path d="M.5 0h3v3.13h-3zM8 0h3v3.13H8zm7.5 0h3v3.13h-3zM.5 7.435h3v3.13h-3zm7.5 0h3v3.13H8zm7.5 0h3v3.13h-3zM.5 14.87h3V18h-3zm7.5 0h3V18H8zm7.5 0h3V18h-3z"/></symbol><symbol viewBox="0 0 18 18" id="sort-2" xmlns="http://www.w3.org/2000/svg"><path d="M8 0h10v3.13H8zm0 7.435h10v3.13H8zm0 7.435h10V18H8zm-7.5 0h3V18h-3zm0-7.435h3v3.13h-3zM.5 0h3v3.13h-3z"/></symbol><symbol viewBox="0 0 16 16" id="sort-order" xmlns="http://www.w3.org/2000/svg"><path d="M4 1l.354-.354a.5.5 0 00-.708 0L4 1zM3.646.646l-3 3 .708.708 3-3-.708-.708zm0 .708l3 3 .708-.708-3-3-.708.708zM3.5 1v14.5h1V1h-1zm6 3.5h6v-1h-6v1zm0 4h4v-1h-4v1zm0 4h2v-1h-2v1z"/></symbol><symbol viewBox="0 0 48 48" id="tool" xmlns="http://www.w3.org/2000/svg"><path d="M27.468 15.792a1.578 1.578 0 000 2.21l2.525 2.525a1.578 1.578 0 002.21 0l5.95-5.95A9.469 9.469 0 0125.622 27.11L14.716 38.015A3.348 3.348 0 119.98 33.28l10.906-10.906A9.47 9.47 0 0133.418 9.842l-5.934 5.935-.016.015z"/></symbol><symbol viewBox="0 0 48 48" id="tool-2" xmlns="http://www.w3.org/2000/svg"><path d="M27.468 15.792a1.578 1.578 0 000 2.21l2.525 2.525a1.578 1.578 0 002.21 0l5.95-5.95A9.469 9.469 0 0125.622 27.11L14.716 38.015A3.348 3.348 0 119.98 33.28l10.906-10.906A9.47 9.47 0 0133.418 9.842l-5.934 5.935-.016.015z"/><path fill-rule="evenodd" clip-rule="evenodd" d="M29 42.833a5.833 5.833 0 100-11.666 5.833 5.833 0 000 11.666zm2.104-7.936a.5.5 0 010 .707L29.707 37l1.397 1.397a.5.5 0 01-.708.707L29 37.707l-1.396 1.397a.5.5 0 01-.708-.707L28.293 37l-1.397-1.396a.5.5 0 01.708-.707L29 36.293l1.396-1.396a.5.5 0 01.708 0z"/></symbol></svg>